<svg width="65" height="64" viewBox="0 0 65 64" fill="none" xmlns="http://www.w3.org/2000/svg">
<g clip-path="url(#clip0_4278_131540)">
<path d="M38.9297 0.869141C40.2663 1.04581 41.548 1.43914 42.8147 1.88081C46.293 3.08914 49.4813 4.81914 52.353 7.13914C55.538 9.71414 58.1897 12.7475 60.2097 16.3041C61.8263 19.1541 62.9947 22.1875 63.6397 25.4175C63.953 26.9875 64.1413 28.5608 64.258 30.1575C64.523 33.7741 64.028 37.2858 63.1513 40.7841C62.838 42.0341 62.4363 43.2708 61.9263 44.4058C60.9963 46.4791 59.9263 48.5075 58.5947 50.3808C57.2013 52.3408 55.583 54.0908 53.8447 55.7308C52.308 57.1808 50.5913 58.4108 48.7747 59.4908C45.9213 61.1875 42.878 62.4275 39.643 63.1741C38.2363 63.4991 36.8213 63.8208 35.3663 63.8641C35.2513 63.8675 35.1097 63.8225 35.0563 63.9875H29.6947C29.653 63.9491 29.613 63.8791 29.5697 63.8775C28.3813 63.8425 27.2263 63.5891 26.063 63.3691C22.5097 62.6975 19.2063 61.3691 16.1063 59.5441C13.498 58.0091 11.158 56.1125 9.08801 53.9008C8.46134 53.2308 7.82967 52.5508 7.33301 51.7691C7.55967 51.7225 7.72634 51.8358 7.90134 51.9591C9.48134 53.0708 11.1547 54.0175 12.9247 54.7975C14.858 55.6491 16.868 56.2591 18.9197 56.7208C19.4147 56.8325 19.9413 57.0908 20.4847 56.8625C20.8947 56.9891 21.3063 57.1175 21.7163 57.2441C24.7413 58.6808 27.9663 59.3041 31.2747 59.4825C33.7763 59.6175 36.2597 59.3391 38.7047 58.7525C44.5797 57.3425 49.4663 54.3225 53.373 49.7275C54.793 48.0575 56.0063 46.2391 56.9913 44.2691C58.0997 42.0508 58.8847 39.7241 59.3513 37.3008C59.7413 35.2808 59.8147 33.2291 59.7747 31.1641C59.7363 29.2108 59.4747 27.3025 59.028 25.4175C57.978 20.9775 55.783 17.1308 52.7947 13.7275C52.0747 12.9075 51.3313 12.0841 50.423 11.4491C50.0847 11.1275 49.7447 10.8058 49.4063 10.4858C49.4613 10.2008 49.258 10.0175 49.1197 9.82247C48.3097 8.67247 47.3997 7.59914 46.4163 6.60081C44.4513 4.60747 42.258 2.89414 39.818 1.50414C39.508 1.32747 39.1163 1.23581 38.933 0.870807L38.9297 0.869141Z" fill="#0165E1"/>
<path d="M20.4831 56.8608C19.9398 57.0908 19.4131 56.8308 18.9181 56.7192C16.8664 56.2575 14.8564 55.6475 12.9231 54.7958C11.1531 54.0158 9.47976 53.0692 7.89977 51.9575C7.72477 51.8342 7.5581 51.7192 7.33143 51.7675C7.24143 51.6825 7.1331 51.6108 7.06476 51.5125C5.7581 49.6192 4.49143 47.7092 3.5131 45.6108C2.1131 42.6042 1.14977 39.4875 0.744766 36.1892C0.683099 35.6892 0.791432 35.1475 0.509766 34.6792V29.4408C0.849766 28.9508 0.674766 28.3742 0.749766 27.8442C1.20143 24.6092 2.0981 21.5292 3.5031 18.5675C4.56977 16.3175 5.87477 14.2425 7.38143 12.2758C9.11643 10.0125 11.1681 8.0775 13.4548 6.38584C15.4114 4.93917 17.4881 3.69084 19.7331 2.7475C22.3364 1.6525 25.0214 0.845836 27.8381 0.499169C29.4531 0.300836 31.0748 0.0975026 32.6964 0.154169C34.6598 0.222503 36.6364 0.285836 38.5598 0.779169C38.6614 0.905836 38.7998 0.880836 38.9348 0.874169L38.9281 0.862503C39.1114 1.2275 39.5031 1.31917 39.8131 1.49584C42.2531 2.88584 44.4464 4.59917 46.4114 6.5925C47.3948 7.58917 48.3048 8.66417 49.1148 9.81417C49.2514 10.0092 49.4564 10.1925 49.4014 10.4775C49.1898 10.4308 49.0398 10.2842 48.8781 10.1558C47.1748 8.81417 45.2764 7.78584 43.3064 6.91917C40.4931 5.6825 37.5231 4.99084 34.4581 4.7575C32.2898 4.5925 30.1148 4.63417 27.9714 5.02084C24.7781 5.59584 21.7381 6.6175 18.9114 8.25084C13.7931 11.2075 10.0064 15.3642 7.49143 20.7092C6.59643 22.6125 5.9381 24.6025 5.54477 26.6425C5.12143 28.8358 4.97643 31.0708 5.0681 33.3358C5.17143 35.9092 5.68143 38.3808 6.46477 40.7925C7.1731 42.9725 8.17143 45.0408 9.45143 46.9675C11.6631 50.2958 14.4014 53.0775 17.8014 55.1925C18.6948 55.7475 19.5864 56.3042 20.4798 56.8608H20.4831Z" fill="#99C1F3"/>
<path d="M38.9368 0.879805C38.8018 0.888138 38.6634 0.911471 38.5618 0.784805C38.6984 0.769805 38.8468 0.708138 38.9368 0.879805Z" fill="#0165E1"/>
<path d="M20.4829 56.8608C19.5896 56.3041 18.6979 55.7491 17.8046 55.1924C14.4046 53.0774 11.6663 50.2957 9.45459 46.9674C8.17459 45.0407 7.17626 42.9724 6.46792 40.7924C5.68459 38.3807 5.17459 35.9091 5.07126 33.3358C4.97959 31.0708 5.12459 28.8358 5.54792 26.6424C5.94126 24.6041 6.59959 22.6124 7.49459 20.7091C10.0079 15.3641 13.7946 11.2074 18.9146 8.25075C21.7413 6.61742 24.7813 5.59575 27.9746 5.02075C30.1179 4.63408 32.2929 4.59242 34.4613 4.75742C37.5263 4.99075 40.4963 5.68242 43.3096 6.91909C45.2796 7.78575 47.1779 8.81408 48.8813 10.1558C49.0429 10.2841 49.1929 10.4308 49.4046 10.4774C49.7446 10.7991 50.0829 11.1208 50.4213 11.4424C50.3529 11.6691 50.4763 11.8308 50.5846 12.0141C51.9979 14.3958 53.1179 16.9058 53.8229 19.5891C54.3113 21.4491 54.6346 23.3324 54.7879 25.2574C54.9379 27.1474 54.8679 29.0141 54.6563 30.8891C54.5329 31.9741 54.2729 33.0324 54.0896 34.1041C53.9896 34.6874 54.0079 35.3357 53.5463 35.8141C53.8679 33.7241 54.0113 31.6324 53.7813 29.5141C53.5146 27.0574 52.8613 24.7207 51.7846 22.5091C49.9396 18.7224 47.1813 15.7458 43.6129 13.5308C40.7829 11.7741 37.6696 10.7841 34.3663 10.5208C32.4529 10.3674 30.5279 10.4574 28.6129 10.8341C24.5813 11.6258 21.0663 13.3757 18.0663 16.1807C16.3713 17.7657 14.9446 19.5524 13.8113 21.5791C12.2829 24.3141 11.4013 27.2607 11.1413 30.3624C10.9796 32.2774 11.1063 34.2074 11.4813 36.1141C12.2163 39.8607 13.8263 43.1824 16.3313 46.0441C18.4446 48.4591 20.9646 50.3641 23.9396 51.6307C26.4979 52.7191 29.1596 53.3341 31.9463 53.3874C33.1496 53.4107 34.3396 53.3208 35.5346 53.1524C38.0029 52.8058 40.3279 52.0491 42.5113 50.8591C43.4146 50.3674 44.2813 49.8057 45.1646 49.2757C44.9763 49.8507 44.4513 50.1057 44.0329 50.4607C41.6929 52.4457 39.0729 53.9641 36.2429 55.1324C33.9396 56.0841 31.5513 56.7007 29.0813 57.0308C27.0513 57.3024 25.0279 57.5207 22.9746 57.2741C22.5696 57.2257 22.1396 57.0908 21.7179 57.2407C21.3079 57.1141 20.8963 56.9857 20.4863 56.8591L20.4829 56.8608Z" fill="#CCE0F9"/>
<path opacity="0.8" d="M53.5436 35.8189C54.0053 35.3406 53.9869 34.6923 54.0869 34.1089C54.2702 33.0373 54.5319 31.9789 54.6536 30.8939C54.8653 29.0189 54.9369 27.1539 54.7852 25.2623C54.6319 23.3373 54.3069 21.4539 53.8203 19.5939C53.1169 16.9106 51.9952 14.4006 50.5819 12.0189C50.4736 11.8356 50.3503 11.6739 50.4186 11.4473C51.3269 12.0839 52.0702 12.9056 52.7902 13.7256C55.7769 17.1306 57.9736 20.9773 59.0236 25.4156C59.4703 27.3006 59.7319 29.2089 59.7702 31.1623C59.8102 33.2273 59.7369 35.2789 59.3469 37.2989C58.8802 39.7223 58.0953 42.0489 56.9869 44.2673C56.0019 46.2389 54.7886 48.0556 53.3686 49.7256C49.4619 54.3206 44.5752 57.3406 38.7002 58.7506C36.2552 59.3373 33.7736 59.6156 31.2702 59.4806C27.9619 59.3023 24.7352 58.6789 21.7119 57.2423C22.1336 57.0939 22.5619 57.2273 22.9686 57.2756C25.0219 57.5223 27.0452 57.3039 29.0752 57.0323C31.5469 56.7023 33.9336 56.0839 36.2369 55.1339C39.0669 53.9656 41.6869 52.4473 44.0269 50.4623C44.4453 50.1073 44.9703 49.8523 45.1586 49.2773C45.4269 49.2856 45.6336 49.2139 45.6519 48.8989C46.4653 48.1356 47.2919 47.3889 47.9936 46.5123C50.5536 43.3156 52.6286 39.8706 53.5386 35.8189H53.5436Z" fill="#4E94EA"/>
<path d="M32.9905 16.9418C33.2931 17.0747 33.6263 17.1008 33.9143 17.29C34.9721 17.9881 35.614 18.942 35.6362 20.3601C35.6515 21.3484 35.3375 22.1651 34.7331 22.8481C34.2521 23.3915 33.6447 23.7001 32.9492 23.8061C31.991 23.9516 31.1354 23.6732 30.4161 23.002C29.7942 22.4208 29.4434 21.6495 29.3752 20.7302C29.3055 19.7948 29.5146 18.9664 30.0531 18.2354C30.5226 17.5979 31.1132 17.1781 31.8454 17.0066C31.8898 16.9965 31.9427 17.0099 31.9588 16.9418L32.3027 16.9418C32.341 17.0066 32.3793 17.0066 32.4176 16.9418L32.5325 16.9418C32.5899 17.0225 32.6474 17.0225 32.7041 16.9418L32.9905 16.9418Z" fill="#0165E1"/>
<path d="M34.5346 26.3216C35.0654 26.6606 35.4266 27.1237 35.6852 27.6747C35.8637 28.0535 35.9566 28.4507 35.9647 28.8532C35.9736 29.3461 36.0326 29.8351 36.0455 30.3272C36.0706 31.2693 36.1554 32.2091 36.2168 33.1504C36.2766 34.0818 36.3534 35.0124 36.393 35.9445C36.4253 36.6999 36.498 37.4522 36.5287 38.2083C36.5546 38.8473 36.5942 39.4894 36.6507 40.1261C36.7315 41.0376 36.7622 41.9514 36.8131 42.8636C36.8357 43.2593 36.9182 43.6519 36.8834 44.0521C36.7881 45.145 36.2758 45.9967 35.286 46.5807C34.6824 46.9365 34.0069 47.0238 33.3185 47.046C32.8054 47.062 32.2907 47.0636 31.7769 47.046C31.229 47.0268 30.6844 46.984 30.1609 46.7911C29.4692 46.5363 28.9602 46.0901 28.5731 45.5077C28.0859 44.7738 28.0423 43.9725 28.1667 43.1376C28.2168 42.8039 28.22 42.458 28.2225 42.122C28.2289 41.2121 28.3404 40.3098 28.3679 39.4014C28.3873 38.7524 28.4366 38.1019 28.4826 37.4537C28.5537 36.4458 28.6103 35.4379 28.6661 34.43C28.6992 33.8285 28.7646 33.2285 28.7897 32.6254C28.8026 32.307 28.8058 31.9833 28.847 31.6665C28.9327 31.0114 28.9004 30.3517 28.9682 29.6981C29.0337 29.0706 28.9715 28.4224 29.226 27.8201C29.6866 26.7311 30.5188 26.0354 31.7389 25.8112C32.7004 25.6344 33.6353 25.7033 34.4643 26.2757L34.5346 26.3216Z" fill="#0165E1"/>
</g>
<defs>
<clipPath id="clip0_4278_131540">
<rect width="64" height="64" fill="white" transform="translate(0.5)"/>
</clipPath>
</defs>
</svg>
